<?xml version="1.0" standalone="no"?>
<!DOCTYPE svg PUBLIC "-//W3C//DTD SVG 20010904//EN"
 "http://www.w3.org/TR/2001/REC-SVG-20010904/DTD/svg10.dtd">
<svg version="1.0" xmlns="http://www.w3.org/2000/svg"
 width="512.000000pt" height="512.000000pt" viewBox="0 0 512.000000 512.000000"
 preserveAspectRatio="xMidYMid meet">
<metadata>
Created by potrace 1.14, written by Peter Selinger 2001-2017
</metadata>
<g transform="translate(0.000000,512.000000) scale(0.100000,-0.100000)"
fill="#000000" stroke="none">
<path d="M353 5105 c-174 -47 -310 -192 -343 -365 -6 -34 -10 -324 -10 -790 1
-798 1 -805 56 -911 33 -63 127 -157 185 -187 119 -60 65 -56 894 -58 753 -2
780 -1 890 29 33 9 131 74 167 110 51 53 78 96 109 172 l23 60 2 765 c2 852 3
843 -66 960 -62 107 -188 197 -307 220 -27 5 -372 9 -798 9 -612 0 -760 -3
-802 -14z"/>
<path d="M3132 5100 c-150 -44 -259 -149 -318 -306 -16 -46 -18 -102 -20 -809
-2 -827 -1 -832 54 -941 32 -62 114 -154 160 -177 15 -7 36 -18 47 -24 43 -23
72 -33 125 -42 31 -5 374 -8 810 -7 700 2 759 4 804 21 118 44 207 116 264
217 60 104 60 110 61 923 0 436 -4 760 -10 790 -24 125 -127 263 -239 320
-107 54 -113 55 -925 54 -700 -1 -754 -2 -813 -19z"/>
<path d="M415 2323 c-144 -18 -275 -103 -349 -226 -66 -110 -66 -111 -65 -933
0 -432 4 -760 10 -789 34 -176 188 -330 364 -364 30 -6 355 -10 795 -10 641 0
754 2 805 15 153 40 267 145 326 300 l23 59 2 760 c2 824 1 834 -53 942 -60
119 -206 224 -340 243 -56 8 -1456 10 -1518 3z"/>
<path d="M3902 1845 c-57 -25 -62 -53 -62 -325 l0 -240 -241 0 c-202 0 -247
-3 -275 -16 -39 -19 -64 -59 -64 -101 0 -38 34 -91 68 -104 16 -6 126 -11 267
-12 l240 -2 5 -250 c3 -169 9 -257 17 -271 19 -33 59 -54 104 -54 54 0 109 50
110 101 0 19 1 134 1 255 l1 221 216 1 c119 0 233 1 253 1 56 1 108 54 108
110 0 23 -8 53 -17 68 -32 48 -62 53 -321 53 l-239 0 -1 238 c0 130 -2 244 -4
252 -8 32 -30 60 -58 75 -36 18 -65 19 -108 0z"/>
</g>
</svg>
